<svg xmlns="http://www.w3.org/2000/svg" xmlns:xlink="http://www.w3.org/1999/xlink" viewBox="0 0 283 283"><defs><style>.cls-1{fill:#fffcf4;}.cls-2{fill:url(#linear-gradient);}.cls-3{fill:url(#linear-gradient-2);}.cls-4{fill:url(#linear-gradient-3);}.cls-5{fill:url(#linear-gradient-4);}.cls-6{fill:url(#linear-gradient-5);}.cls-7{stroke:#67310e;stroke-linecap:round;stroke-linejoin:round;fill:url(#radial-gradient);}.cls-8{fill:#899eaa;}</style><linearGradient id="linear-gradient" x1="86" y1="143.9" x2="244.07" y2="143.9" gradientUnits="userSpaceOnUse"><stop offset="0" stop-color="#67310e"/><stop offset="0.13" stop-color="#6b3d1f"/><stop offset="0.4" stop-color="#755c4b"/><stop offset="0.77" stop-color="#858e91"/><stop offset="0.79" stop-color="#869296"/><stop offset="1" stop-color="#899eaa"/></linearGradient><linearGradient id="linear-gradient-2" x1="452.84" y1="145.81" x2="610.91" y2="145.81" gradientTransform="translate(-151.77 578.67) rotate(-72)" xlink:href="#linear-gradient"/><linearGradient id="linear-gradient-3" x1="571.34" y1="491.6" x2="729.41" y2="491.6" gradientTransform="translate(358.93 904.32) rotate(-144)" xlink:href="#linear-gradient"/><linearGradient id="linear-gradient-4" x1="285.1" y1="715.5" x2="443.17" y2="715.5" gradientTransform="translate(834.25 517.63) rotate(144)" xlink:href="#linear-gradient"/><linearGradient id="linear-gradient-5" x1="-4.73" y1="510.71" x2="153.34" y2="510.71" gradientTransform="translate(604.9 -63.39) rotate(72)" xlink:href="#linear-gradient"/><radialGradient id="radial-gradient" cx="145.9" cy="144.23" r="51.53" gradientTransform="translate(-11.82 -11.93) scale(1.04 1.04)" gradientUnits="userSpaceOnUse"><stop offset="0" stop-color="#fffcf4"/><stop offset="0.07" stop-color="#dfcdba"/><stop offset="0.23" stop-color="#be9e83"/><stop offset="1" stop-color="#67310e"/></radialGradient></defs><g id="Layer_2" data-name="Layer 2"><g id="Layer_3" data-name="Layer 3"><circle class="cls-1" cx="141.5" cy="141.5" r="141.5"/><path class="cls-2" d="M220.83,231.47a2,2,0,0,1-1.75-3c.35-.63,34.55-63.27,14.91-114.82-14.94-39.19-55.94-61.06-95.37-50.87a63.58,63.58,0,0,0-40.35,31.3c-7.1,12.75-8.84,25.18-8.17,28.7a2,2,0,1,1-3.92.76c-1.6-8.3,7.16-53.19,51.44-64.63,41.4-10.7,84.44,12.22,100.1,53.31,5.87,15.41,10.66,41.69.13,79.4a195,195,0,0,1-15.27,38.79A2,2,0,0,1,220.83,231.47Z"/><path class="cls-3" d="M251.79,91.89a2,2,0,0,1-.54.84,2,2,0,0,1-2.82-.1c-.49-.52-49.5-52.41-104.6-49.66C102,45.07,68.48,77.31,66,118a63.56,63.56,0,0,0,17.29,48c9.93,10.69,21.21,16.19,24.78,16.64a2,2,0,0,1-.5,4c-8.38-1.05-48.37-23.25-45.57-68.9C64.61,75,99.71,41.18,143.63,39c16.47-.82,42.94,2.74,75.55,24.41a195.62,195.62,0,0,1,32.18,26.52A2,2,0,0,1,251.79,91.89Z"/><path class="cls-4" d="M128.07,20.68a2.08,2.08,0,0,1,.63.77,2,2,0,0,1-1,2.66c-.65.3-65.14,30.88-79.54,84.13-11,40.48,9.36,82.28,47.25,97.21a63.52,63.52,0,0,0,51-1.6c13.24-6.14,22-15.17,23.49-18.42a2,2,0,1,1,3.62,1.69c-3.59,7.65-37.06,38.82-79.6,22-39.79-15.68-61.14-59.52-49.66-102,4.31-15.92,15.88-40,46.57-64.31a194.63,194.63,0,0,1,35.16-22.4A2,2,0,0,1,128.07,20.68Z"/><path class="cls-5" d="M22.49,114.75a2,2,0,0,1,.93-.36,2,2,0,0,1,2.23,1.74c.08.71,9.24,71.5,55.43,101.65,35.12,22.93,81.14,16.52,107.05-14.9a63.55,63.55,0,0,0,14.25-49c-1.75-14.49-7.64-25.57-10.27-28a2,2,0,1,1,2.74-2.92c6.17,5.78,25.47,47.24-3.63,82.52-27.21,33-75.5,39.75-112.33,15.71-13.8-9-33.12-27.46-46.77-64.16a195.55,195.55,0,0,1-10.44-40.36A2,2,0,0,1,22.49,114.75Z"/><path class="cls-6" d="M76.1,245.22a1.88,1.88,0,0,1-.06-1,2,2,0,0,1,2.34-1.58c.7.14,70.85,13.3,113.81-21.31C224.84,195,233,149.27,211.09,114.91a63.5,63.5,0,0,0-42.23-28.69c-14.31-2.82-26.68-.64-29.82,1.1a2,2,0,0,1-1.93-3.51c7.39-4.08,52.8-9.62,77.36,29,23,36.08,14.47,84.09-19.77,111.69-12.84,10.34-36.36,23-75.47,24.65a194.43,194.43,0,0,1-41.62-2.54A2,2,0,0,1,76.1,245.22Z"/><g id="_Radial_Repeat_" data-name="&lt;Radial Repeat&gt;"><path class="cls-7" d="M169.45,187.66c-6.18-.58-19.35-5.62-34.25-.3-21.63,7.71-29.2-1.86-30.32-5.06h0c-1.35-6-.6-20-10.29-32.45-14.07-18.05-7.24-28.15-4.53-30.21h0c5.35-3.14,19-6.75,27.89-19.75,12.93-18.86,24.72-15.54,27.52-13.61h0c4.65,4.08,12.33,15.85,27.53,20.25,22,6.38,22.51,18.54,21.54,21.79h0c-2.47,5.66-11.36,16.55-10.88,32.26.7,22.81-10.8,27-14.21,27.08"/></g><path class="cls-8" d="M141.5,0A141.5,141.5,0,1,0,283,141.5,141.5,141.5,0,0,0,141.5,0ZM252.09,113.81,271.55,177h0c-2,4.3-15.67-32.3-16.31-27.65l-1,66.11h0c-3.21,3.48-4.93-35.57-7-31.34l-21.39,62.56h0c-4.13,2.33,6.3-35.34,3-31.95l-39.68,52.88h0c-4.64.94,16.92-31.66,12.77-29.45l-54.07,38h0c-4.7-.54,25.88-24.88,21.25-24L106,271.55h0c-4.3-2,32.3-15.67,27.65-16.31l-66.11-1h0c-3.48-3.21,35.57-4.92,31.33-7L36.35,225.86h0c-2.33-4.12,35.34,6.31,32,3.06L15.43,189.23h0C14.5,184.59,47.1,206.16,44.89,202l-38-54.07h0c.54-4.7,24.88,25.88,24.06,21.26L11.45,106h0c2-4.3,15.67,32.31,16.31,27.65l1-66.11h0c3.21-3.48,4.93,35.57,7,31.33L57.15,36.35h0c4.12-2.32-6.31,35.35-3.06,32L93.77,15.43h0C98.41,14.5,76.84,47.1,81,44.89l54.07-38h0c4.7.54-25.88,24.88-21.25,24.06L177,11.45h0c4.3,2-32.3,15.67-27.65,16.31l66.11,1h0c3.48,3.21-35.57,4.93-31.34,7l62.56,21.39h0c2.33,4.12-35.34-6.31-31.95-3.06l52.88,39.68h0c.94,4.64-31.66-16.93-29.45-12.78l38,54.07h0C275.6,139.76,251.26,109.18,252.09,113.81Z"/></g></g></svg>