<svg xmlns="http://www.w3.org/2000/svg" xmlns:xlink="http://www.w3.org/1999/xlink" viewBox="0 0 283 283"><defs><style>.cls-1{fill:url(#radial-gradient);}.cls-2{fill:#67310e;}.cls-3{fill:#fffcf4;}</style><radialGradient id="radial-gradient" cx="141.5" cy="141.5" r="141.5" gradientUnits="userSpaceOnUse"><stop offset="0.38" stop-color="#fffcf4"/><stop offset="0.82" stop-color="#bfcbd0"/><stop offset="1" stop-color="#899eaa"/></radialGradient></defs><g id="Layer_2" data-name="Layer 2"><g id="Layer_11" data-name="Layer 11"><circle class="cls-1" cx="141.5" cy="141.5" r="141.5"/><path class="cls-2" d="M29.74,161c-24.32-10.73-24.32-28.27,0-39s41.87-41.11,39-67.54S81.06,19.27,102.51,35s56.54,15.7,78,0S217.14,28,214.26,54.46s14.68,56.82,39,67.54,24.32,28.27,0,39-41.87,41.11-39,67.54S201.94,263.73,180.49,248s-56.54-15.7-78,0S65.86,255,68.74,228.54,54.06,171.72,29.74,161Z"/><path class="cls-3" d="M124.9,85.83C117.64,83.16,109.17,88,106,96.72s.1,17.88,7.36,20.55,15.73-2.21,18.92-10.89S132.16,88.49,124.9,85.83ZM115,114.62c.81,1.41-1.9,1.73-2.71.33-3.12-5.36-.2-10.2,3.38-13.74s9.8-7.63,7.8-13.58c-.48-1.43,2.23-1.77,2.71-.33,2,5.91-2.22,10.14-6.27,13.82C116.17,104.53,111.76,109,115,114.62Z"/><path class="cls-3" d="M80.3,103.92c-5.66-5.27-15.35-4.06-21.66,2.72s-6.82,16.53-1.16,21.79,15.35,4.06,21.66-2.72S86,109.18,80.3,103.92ZM60,126.63c.21,1.62-2.42.86-2.63-.74-.8-6.15,3.77-9.48,8.43-11.35,4.85-2,12-3.25,12.46-9.51.11-1.5,2.73-.77,2.62.74-.46,6.22-6,8.49-11.13,10.32C65,117.79,59.2,120.22,60,126.63Z"/><path class="cls-3" d="M134.35,53.4c-5.12-5.79-14.89-5.52-21.82.61s-8.4,15.79-3.28,21.58,14.89,5.52,21.82-.6S139.47,59.2,134.35,53.4ZM112,74.05c0,1.62-2.49.62-2.54-1-.2-6.2,4.66-9.06,9.49-10.48,5-1.47,12.25-2.07,13.32-8.25.25-1.49,2.8-.5,2.54,1-1.06,6.14-6.77,7.87-12.08,9.19C117.79,65.73,111.77,67.59,112,74.05Z"/><path class="cls-3" d="M144,61.47c-3.16,7.06,1.11,15.85,9.55,19.63s17.85,1.14,21-5.92S173.48,59.34,165,55.56,147.2,54.42,144,61.47Zm28,11.87c1.46-.72,1.59,2,.14,2.72-5.57,2.74-10.19-.51-13.47-4.32s-6.94-10.31-13-8.73c-1.46.38-1.61-2.34-.14-2.72,6-1.57,10,2.92,13.36,7.21C162.09,71.47,166.27,76.19,172.07,73.34Z"/><path class="cls-3" d="M177.3,53.83c2.49,7.32,11.61,10.84,20.37,7.87S211.51,50.38,209,43.06s-11.6-10.85-20.36-7.87S174.82,46.51,177.3,53.83Zm28.62-10.4c.58-1.52,2.53.39,2,1.9-2.21,5.79-7.8,6.56-12.8,6-5.2-.58-12.1-2.82-15.47,2.47-.81,1.27-2.78-.62-2-1.9,3.35-5.26,9.28-4.65,14.69-3.81C197.34,48.86,203.61,49.47,205.92,43.43Z"/><path class="cls-3" d="M87.87,150.53c-.34-7.73-8.11-13.66-17.36-13.24s-16.45,7-16.11,14.73,8.12,13.65,17.36,13.24S88.21,158.25,87.87,150.53Zm-30.38,2c-1,1.3-2.32-1.08-1.35-2.37,3.74-4.95,9.33-4.12,14-2.19,4.83,2,10.84,6.09,15.55,1.95,1.13-1,2.49,1.36,1.35,2.37-4.68,4.11-10.21,1.87-15.17-.44C67.25,149.71,61.39,147.37,57.49,152.53Z"/><path class="cls-3" d="M105.22,85.78c0-7.76-7.5-14-16.75-14S71.72,78,71.72,85.78s7.5,14,16.75,14S105.22,93.53,105.22,85.78Zm-30.44.65c-1,1.25-2.27-1.19-1.24-2.44,4-4.79,9.5-3.71,14.06-1.57C92.33,84.65,98.15,89,103,85.06c1.17-.94,2.43,1.49,1.24,2.44C99.42,91.41,94,88.92,89.15,86.38,84.65,84,78.91,81.43,74.78,86.43Z"/><path class="cls-3" d="M193.68,112.36c-5.25-5.67-15-5.18-21.8,1.1s-8,16-2.79,21.65,15,5.19,21.8-1.1S198.93,118,193.68,112.36Zm-21.9,21.15c.09,1.62-2.47.68-2.56-.94-.34-6.19,4.46-9.17,9.25-10.69,5-1.59,12.2-2.35,13.13-8.56.22-1.49,2.78-.56,2.56.94-.92,6.16-6.59,8-11.87,9.46C177.4,125.06,171.43,127.05,171.78,133.51Z"/><path class="cls-3" d="M89.05,129.8c-2,7.46,3.58,15.48,12.51,17.89s17.81-1.67,19.83-9.13-3.58-15.47-12.51-17.89S91.08,122.34,89.05,129.8Zm29.55,7.33c1.33-.94,1.89,1.74.57,2.67-5.07,3.58-10.14,1.09-14-2.16s-8.47-9.1-14.22-6.58c-1.38.6-2-2.06-.56-2.67,5.71-2.5,10.29,1.32,14.32,5C108.45,136.85,113.32,140.86,118.6,137.13Z"/><path class="cls-3" d="M172.27,102.42c1.48-7.59-4.68-15.18-13.76-17S140.87,88.41,139.39,96s4.68,15.18,13.75,17S170.79,110,172.27,102.42Zm-30-5.2c-1.26,1-2-1.59-.76-2.62,4.8-3.93,10-1.81,14.1,1.16,4.22,3.08,9.1,8.46,14.65,5.55,1.34-.7,2.1,1.91.76,2.62-5.52,2.89-10.36-.58-14.65-4C152.41,96.77,147.27,93.13,142.27,97.22Z"/><path class="cls-3" d="M93.46,34.49c-7.12-3-15.81,1.47-19.41,10s-.74,17.87,6.38,20.87,15.82-1.46,19.42-10S100.58,37.5,93.46,34.49ZM82.22,62.78c.75,1.45-2,1.64-2.72.21-2.86-5.51.29-10.2,4-13.56S93.68,42.26,92,36.22c-.41-1.44,2.31-1.66,2.72-.2,1.7,6-2.69,10-6.91,13.52C83.86,52.76,79.24,57.05,82.22,62.78Z"/><path class="cls-3" d="M255.55,129.35c-6.3-4.49-15.75-2-21.12,5.52s-4.62,17.27,1.68,21.76,15.75,2,21.12-5.51S261.85,133.84,255.55,129.35Zm-17.14,25.16c.42,1.58-2.28,1.17-2.69-.39-1.6-6,2.5-9.89,6.88-12.36,4.55-2.56,11.47-4.78,11.11-11-.09-1.5,2.61-1.12,2.7.4.35,6.22-4.82,9.19-9.7,11.68C242.2,145.09,236.75,148.27,238.41,154.51Z"/><path class="cls-3" d="M199.43,67.14c-7.73,0-14,7.5-14,16.75s6.27,16.75,14,16.75,14-7.5,14-16.75S207.16,67.14,199.43,67.14Zm.65,30.44c1.25,1-1.18,2.27-2.43,1.24-4.77-4-3.7-9.5-1.56-14,2.22-4.74,6.56-10.56,2.63-15.45-.94-1.17,1.48-2.43,2.43-1.24,3.9,4.86,1.41,10.28-1.11,15.14C197.7,87.71,195.1,93.45,200.08,97.58Z"/><path class="cls-3" d="M202.23,114.33c-3.16,7.06,1.11,15.85,9.55,19.63s17.85,1.14,21-5.92-1.12-15.84-9.56-19.63S205.4,107.28,202.23,114.33Zm28,11.87c1.46-.72,1.59,2,.14,2.72-5.57,2.74-10.19-.51-13.47-4.32s-6.94-10.31-13-8.73c-1.46.38-1.61-2.34-.14-2.72,6-1.57,10,2.91,13.35,7.21C220.29,124.33,224.47,129.05,230.27,126.2Z"/><path class="cls-3" d="M221.12,142.91c-6.16-4.66-15.69-2.46-21.27,4.91s-5.11,17.14,1.06,21.81,15.69,2.47,21.27-4.91S227.29,147.58,221.12,142.91Zm-17.85,24.67c.38,1.58-2.31,1.1-2.68-.47-1.42-6,2.78-9.82,7.23-12.16,4.63-2.43,11.6-4.45,11.42-10.72,0-1.51,2.64-1,2.69.47.17,6.23-5.08,9.05-10,11.4C207.33,158.27,201.79,161.29,203.27,167.58Z"/><path class="cls-3" d="M32,124.85c-7.48,2-11.57,10.93-9.14,19.85s10.47,14.51,18,12.47S52.42,146.24,50,137.31,39.52,122.81,32,124.85ZM40.67,154c1.49.67-.55,2.51-2,1.84-5.67-2.56-6.09-8.19-5.22-13.15.91-5.15,3.58-11.91-1.51-15.59-1.22-.89.79-2.74,2-1.84C39,129,38,134.84,36.85,140.2,35.77,145.15,34.77,151.37,40.67,154Z"/><path class="cls-3" d="M120.71,189.84c-7.26-2.66-15.73,2.21-18.92,10.89s.1,17.89,7.36,20.56,15.72-2.21,18.92-10.89S128,192.51,120.71,189.84Zm-9.9,28.8c.82,1.4-1.89,1.72-2.71.33-3.11-5.37-.19-10.2,3.38-13.74s9.81-7.63,7.81-13.58c-.48-1.43,2.22-1.77,2.71-.33,2,5.9-2.22,10.14-6.27,13.82C112,208.55,107.56,213.05,110.81,218.64Z"/><path class="cls-3" d="M94.73,174.11c-5.66-5.27-15.36-4.05-21.66,2.72s-6.83,16.53-1.17,21.8,15.36,4.05,21.66-2.72S100.39,179.38,94.73,174.11ZM74.46,196.83c.21,1.61-2.41.86-2.62-.74-.8-6.15,3.76-9.48,8.43-11.36,4.85-1.95,12-3.25,12.45-9.51.11-1.5,2.74-.77,2.63.75-.46,6.21-6,8.49-11.13,10.32C79.44,188,73.63,190.42,74.46,196.83Z"/><path class="cls-3" d="M106.23,161c-3.17,7.06,1.11,15.85,9.55,19.63s17.85,1.14,21-5.92-1.11-15.84-9.55-19.63S109.39,154,106.23,161Zm28,11.87c1.46-.72,1.59,2,.14,2.72-5.57,2.74-10.19-.51-13.47-4.32s-6.94-10.31-13-8.73c-1.46.38-1.61-2.34-.14-2.72,6-1.57,10,2.91,13.35,7.21C124.29,171,128.46,175.74,134.27,172.89Z"/><path class="cls-3" d="M177.3,236.11c2.49,7.32,11.61,10.84,20.37,7.87s13.84-11.33,11.35-18.65-11.6-10.84-20.36-7.87S174.82,228.78,177.3,236.11Zm28.62-10.41c.58-1.52,2.53.39,2,1.9-2.21,5.8-7.8,6.56-12.8,6-5.2-.58-12.1-2.83-15.47,2.47-.81,1.26-2.78-.62-2-1.9,3.35-5.26,9.28-4.65,14.69-3.82C197.34,231.13,203.61,231.74,205.92,225.7Z"/><path class="cls-3" d="M173,185.32c-.35-7.73-8.12-13.65-17.36-13.24s-16.45,7-16.11,14.73,8.12,13.65,17.36,13.24S173.37,193,173,185.32Zm-30.38,2c-1,1.3-2.32-1.08-1.35-2.37,3.74-4.95,9.33-4.12,14-2.19,4.83,2,10.83,6.09,15.55,2,1.13-1,2.49,1.36,1.35,2.37-4.68,4.11-10.21,1.87-15.17-.44C152.4,184.5,146.55,182.16,142.65,187.32Z"/><path class="cls-3" d="M155.55,154.49c-2,7.46,3.58,15.48,12.51,17.89s17.81-1.67,19.83-9.13-3.58-15.47-12.51-17.89S157.58,147,155.55,154.49Zm29.55,7.33c1.33-.94,1.89,1.74.57,2.67-5.07,3.58-10.14,1.09-14-2.16-4-3.38-8.47-9.1-14.22-6.58-1.38.6-1.95-2.06-.56-2.67,5.71-2.5,10.29,1.32,14.32,5C175,161.54,179.82,165.55,185.1,161.82Z"/><path class="cls-3" d="M169.42,223.08c1.48-7.59-4.68-15.18-13.76-17s-17.64,2.94-19.12,10.53,4.68,15.18,13.76,17S167.94,230.67,169.42,223.08Zm-30-5.2c-1.26,1-2-1.59-.75-2.62,4.79-3.93,10-1.81,14.09,1.16,4.22,3.08,9.1,8.46,14.65,5.54,1.34-.7,2.1,1.92.76,2.62-5.52,2.9-10.36-.58-14.65-4C149.56,217.43,144.42,213.79,139.42,217.88Z"/><path class="cls-3" d="M153.54,122.05c-6.29-4.49-15.75-2-21.12,5.51s-4.62,17.28,1.68,21.77,15.76,2,21.12-5.52S159.84,126.53,153.54,122.05Zm-17.13,25.16c.42,1.58-2.29,1.17-2.7-.39-1.59-6,2.5-9.89,6.88-12.36,4.55-2.57,11.47-4.78,11.11-11.05-.09-1.5,2.61-1.12,2.7.4.35,6.22-4.82,9.19-9.69,11.68C140.19,137.79,134.75,141,136.41,147.21Z"/><path class="cls-3" d="M88.47,216c-7.73,0-14,7.5-14,16.75s6.27,16.75,14,16.75,14-7.5,14-16.75S96.2,216,88.47,216Zm.65,30.43c1.25,1-1.18,2.28-2.43,1.25-4.77-4-3.7-9.51-1.56-14.06,2.22-4.73,6.56-10.55,2.63-15.44-.94-1.18,1.48-2.43,2.43-1.25,3.9,4.86,1.41,10.29-1.11,15.14C86.74,236.51,84.14,242.26,89.12,246.38Z"/><path class="cls-3" d="M189.87,178.08c-7.49,2-11.58,10.93-9.15,19.86s10.48,14.5,18,12.46,11.58-10.93,9.14-19.85S197.35,176,189.87,178.08Zm8.63,29.2c1.49.67-.54,2.5-2,1.84-5.66-2.56-6.08-8.19-5.21-13.15.9-5.15,3.57-11.91-1.52-15.6-1.22-.88.79-2.73,2-1.84,5.05,3.66,4.07,9.55,2.9,14.9C193.6,198.38,192.6,204.61,198.5,207.28Z"/></g></g></svg>