<?xml version="1.0" encoding="UTF-8" standalone="no"?>
<!DOCTYPE svg PUBLIC "-//W3C//DTD SVG 1.1//EN"
 "http://www.w3.org/Graphics/SVG/1.1/DTD/svg11.dtd">
<!-- Generated by graphviz version 2.50.0 (20211204.2007)
 -->
<!-- Title: tree Pages: 1 -->
<svg width="330pt" height="316pt"
 viewBox="0.00 0.00 330.00 316.00" xmlns="http://www.w3.org/2000/svg" xmlns:xlink="http://www.w3.org/1999/xlink">
<g id="graph0" class="graph" transform="scale(1 1) rotate(0) translate(4 312)">
<title>tree</title>
<polygon fill="white" stroke="transparent" points="-4,4 -4,-312 326,-312 326,4 -4,4"/>
<g id="clust1" class="cluster">
<title>cluster_node0000</title>
<polygon fill="white" stroke="white" points="8,-8 8,-300 314,-300 314,-8 8,-8"/>
</g>
<g id="clust2" class="cluster">
<title>cluster_node0001</title>
<polygon fill="white" stroke="white" points="16,-16 16,-228 306,-228 306,-16 16,-16"/>
</g>
<g id="clust3" class="cluster">
<title>cluster_node0003</title>
<polygon fill="white" stroke="white" points="24,-24 24,-156 110,-156 110,-24 24,-24"/>
</g>
<g id="clust4" class="cluster">
<title>cluster_node0004</title>
<polygon fill="white" stroke="white" points="32,-32 32,-84 102,-84 102,-32 32,-32"/>
</g>
<g id="clust5" class="cluster">
<title>cluster_node0005</title>
<polygon fill="white" stroke="white" points="118,-24 118,-156 204,-156 204,-24 118,-24"/>
</g>
<g id="clust6" class="cluster">
<title>cluster_node0006</title>
<polygon fill="white" stroke="white" points="126,-32 126,-84 196,-84 196,-32 126,-32"/>
</g>
<g id="clust7" class="cluster">
<title>cluster_node0007</title>
<polygon fill="white" stroke="white" points="212,-24 212,-156 298,-156 298,-24 212,-24"/>
</g>
<g id="clust8" class="cluster">
<title>cluster_node0008</title>
<polygon fill="white" stroke="white" points="220,-32 220,-84 290,-84 290,-32 220,-32"/>
</g>
<!-- nodenode0000 -->
<g id="node1" class="node">
<title>nodenode0000</title>
<ellipse fill="none" stroke="black" cx="161" cy="-274" rx="27" ry="18"/>
<text text-anchor="middle" x="161" y="-270.3" font-family="Times,serif" font-size="14.00">id</text>
</g>
<!-- nodenode0001 -->
<g id="node2" class="node">
<title>nodenode0001</title>
<ellipse fill="none" stroke="black" cx="161" cy="-202" rx="27" ry="18"/>
<text text-anchor="middle" x="161" y="-198.3" font-family="Times,serif" font-size="14.00">hex</text>
</g>
<!-- nodenode0000&#45;&gt;nodenode0001 -->
<g id="edge1" class="edge">
<title>nodenode0000&#45;&gt;nodenode0001</title>
<path fill="none" stroke="black" d="M161,-255.7C161,-247.98 161,-238.71 161,-230.11"/>
<polygon fill="black" stroke="black" points="164.5,-230.1 161,-220.1 157.5,-230.1 164.5,-230.1"/>
</g>
<!-- nodenode0003 -->
<g id="node3" class="node">
<title>nodenode0003</title>
<ellipse fill="none" stroke="black" cx="71" cy="-130" rx="27" ry="18"/>
<text text-anchor="middle" x="71" y="-126.3" font-family="Times,serif" font-size="14.00">digit</text>
</g>
<!-- nodenode0001&#45;&gt;nodenode0003 -->
<g id="edge2" class="edge">
<title>nodenode0001&#45;&gt;nodenode0003</title>
<path fill="none" stroke="black" d="M144.07,-187.83C130.5,-177.27 111.24,-162.3 95.91,-150.37"/>
<polygon fill="black" stroke="black" points="97.89,-147.48 87.85,-144.11 93.6,-153.01 97.89,-147.48"/>
</g>
<!-- nodenode0005 -->
<g id="node4" class="node">
<title>nodenode0005</title>
<ellipse fill="none" stroke="black" cx="161" cy="-130" rx="27" ry="18"/>
<text text-anchor="middle" x="161" y="-126.3" font-family="Times,serif" font-size="14.00">digit</text>
</g>
<!-- nodenode0001&#45;&gt;nodenode0005 -->
<g id="edge3" class="edge">
<title>nodenode0001&#45;&gt;nodenode0005</title>
<path fill="none" stroke="black" d="M161,-183.7C161,-175.98 161,-166.71 161,-158.11"/>
<polygon fill="black" stroke="black" points="164.5,-158.1 161,-148.1 157.5,-158.1 164.5,-158.1"/>
</g>
<!-- nodenode0007 -->
<g id="node5" class="node">
<title>nodenode0007</title>
<ellipse fill="none" stroke="black" cx="251" cy="-130" rx="27" ry="18"/>
<text text-anchor="middle" x="251" y="-126.3" font-family="Times,serif" font-size="14.00">digit</text>
</g>
<!-- nodenode0001&#45;&gt;nodenode0007 -->
<g id="edge4" class="edge">
<title>nodenode0001&#45;&gt;nodenode0007</title>
<path fill="none" stroke="black" d="M177.93,-187.83C191.5,-177.27 210.76,-162.3 226.09,-150.37"/>
<polygon fill="black" stroke="black" points="228.4,-153.01 234.15,-144.11 224.11,-147.48 228.4,-153.01"/>
</g>
<!-- nodenode0004 -->
<g id="node6" class="node">
<title>nodenode0004</title>
<polygon fill="none" stroke="black" points="94,-63.56 67,-76 40,-63.56 40.03,-43.44 93.97,-43.44 94,-63.56"/>
<text text-anchor="middle" x="67" y="-54.3" font-family="Times,serif" font-size="14.00">&#39;0&#39;</text>
</g>
<!-- nodenode0003&#45;&gt;nodenode0004 -->
<g id="edge5" class="edge">
<title>nodenode0003&#45;&gt;nodenode0004</title>
<path fill="none" stroke="black" d="M70.01,-111.7C69.56,-103.87 69.02,-94.44 68.53,-85.73"/>
<polygon fill="black" stroke="black" points="72.01,-85.41 67.95,-75.62 65.03,-85.81 72.01,-85.41"/>
</g>
<!-- nodenode0006 -->
<g id="node7" class="node">
<title>nodenode0006</title>
<polygon fill="none" stroke="black" points="188,-63.56 161,-76 134,-63.56 134.03,-43.44 187.97,-43.44 188,-63.56"/>
<text text-anchor="middle" x="161" y="-54.3" font-family="Times,serif" font-size="14.00">&#39;7&#39;</text>
</g>
<!-- nodenode0005&#45;&gt;nodenode0006 -->
<g id="edge6" class="edge">
<title>nodenode0005&#45;&gt;nodenode0006</title>
<path fill="none" stroke="black" d="M161,-111.7C161,-103.98 161,-94.71 161,-86.11"/>
<polygon fill="black" stroke="black" points="164.5,-86.1 161,-76.1 157.5,-86.1 164.5,-86.1"/>
</g>
<!-- nodenode0008 -->
<g id="node8" class="node">
<title>nodenode0008</title>
<polygon fill="none" stroke="black" points="282,-63.56 255,-76 228,-63.56 228.03,-43.44 281.97,-43.44 282,-63.56"/>
<text text-anchor="middle" x="255" y="-54.3" font-family="Times,serif" font-size="14.00">&#39;f&#39;</text>
</g>
<!-- nodenode0007&#45;&gt;nodenode0008 -->
<g id="edge7" class="edge">
<title>nodenode0007&#45;&gt;nodenode0008</title>
<path fill="none" stroke="black" d="M251.99,-111.7C252.44,-103.87 252.98,-94.44 253.47,-85.73"/>
<polygon fill="black" stroke="black" points="256.97,-85.81 254.05,-75.62 249.99,-85.41 256.97,-85.81"/>
</g>
</g>
</svg>
