<?xml version="1.0" encoding="UTF-8" standalone="no"?>
<!DOCTYPE svg PUBLIC "-//W3C//DTD SVG 1.1//EN"
 "http://www.w3.org/Graphics/SVG/1.1/DTD/svg11.dtd">
<!-- Generated by graphviz version 2.50.0 (20211204.2007)
 -->
<!-- Title: SPPF Pages: 1 -->
<svg width="330pt" height="562pt"
 viewBox="0.00 0.00 330.00 562.00" xmlns="http://www.w3.org/2000/svg" xmlns:xlink="http://www.w3.org/1999/xlink">
<g id="graph0" class="graph" transform="scale(1 1) rotate(0) translate(4 558)">
<title>SPPF</title>
<polygon fill="white" stroke="transparent" points="-4,4 -4,-558 326,-558 326,4 -4,4"/>
<g id="clust1" class="cluster">
<title>cluster_id4752</title>
<polygon fill="white" stroke="white" points="9,-80 9,-132 115,-132 115,-80 9,-80"/>
</g>
<g id="clust2" class="cluster">
<title>cluster_id_1594439322</title>
<polygon fill="white" stroke="white" points="50,-152 50,-204 156,-204 156,-152 50,-152"/>
</g>
<g id="clust3" class="cluster">
<title>cluster_id5507</title>
<polygon fill="white" stroke="white" points="123,-8 123,-60 229,-60 229,-8 123,-8"/>
</g>
<g id="clust4" class="cluster">
<title>cluster_id_1594439260</title>
<polygon fill="white" stroke="white" points="123,-80 123,-132 229,-132 229,-80 123,-80"/>
</g>
<g id="clust5" class="cluster">
<title>cluster_id_1052860259</title>
<polygon fill="white" stroke="white" points="8,-233 8,-348 200,-348 200,-233 8,-233"/>
</g>
<g id="clust7" class="cluster">
<title>cluster_id10253</title>
<polygon fill="white" stroke="white" points="210,-152 210,-204 312,-204 312,-152 210,-152"/>
</g>
<g id="clust8" class="cluster">
<title>cluster_id_1594439167</title>
<polygon fill="white" stroke="white" points="208,-224 208,-276 314,-276 314,-224 208,-224"/>
</g>
<g id="clust9" class="cluster">
<title>cluster_id_1050692850</title>
<polygon fill="white" stroke="white" points="122,-368 122,-474 222,-474 222,-368 122,-368"/>
</g>
<g id="clust11" class="cluster">
<title>cluster_id12750901</title>
<polygon fill="white" stroke="white" points="128,-494 128,-546 216,-546 216,-494 128,-494"/>
</g>
<!-- nodeid4752 -->
<g id="node1" class="node">
<title>nodeid4752</title>
<polygon fill="none" stroke="black" points="106.98,-111.56 62,-124 17.02,-111.56 17.06,-91.44 106.94,-91.44 106.98,-111.56"/>
<text text-anchor="middle" x="62" y="-102.3" font-family="Times,serif" font-size="14.00">&#39;0&#39;, 0, 1</text>
</g>
<!-- nodeid_1594439322 -->
<g id="node2" class="node">
<title>nodeid_1594439322</title>
<ellipse fill="none" stroke="black" cx="103" cy="-178" rx="45.49" ry="18"/>
<text text-anchor="middle" x="103" y="-174.3" font-family="Times,serif" font-size="14.00">digit, 0, 1</text>
</g>
<!-- nodeid_1594439322&#45;&gt;nodeid4752 -->
<g id="edge1" class="edge">
<title>nodeid_1594439322&#45;&gt;nodeid4752</title>
<path fill="none" stroke="black" d="M93.28,-160.41C88.12,-151.59 81.67,-140.58 75.97,-130.86"/>
<polygon fill="black" stroke="black" points="78.88,-128.9 70.81,-122.04 72.84,-132.44 78.88,-128.9"/>
</g>
<!-- nodeid_1594439260 -->
<g id="node4" class="node">
<title>nodeid_1594439260</title>
<ellipse fill="none" stroke="black" cx="176" cy="-106" rx="45.49" ry="18"/>
<text text-anchor="middle" x="176" y="-102.3" font-family="Times,serif" font-size="14.00">digit, 1, 2</text>
</g>
<!-- nodeid_1594439322&#45;&gt;nodeid_1594439260 -->
<!-- nodeid5507 -->
<g id="node3" class="node">
<title>nodeid5507</title>
<polygon fill="none" stroke="black" points="220.98,-39.56 176,-52 131.02,-39.56 131.06,-19.44 220.94,-19.44 220.98,-39.56"/>
<text text-anchor="middle" x="176" y="-30.3" font-family="Times,serif" font-size="14.00">&#39;7&#39;, 1, 2</text>
</g>
<!-- nodeid_1594439260&#45;&gt;nodeid5507 -->
<g id="edge2" class="edge">
<title>nodeid_1594439260&#45;&gt;nodeid5507</title>
<path fill="none" stroke="black" d="M176,-87.7C176,-79.98 176,-70.71 176,-62.11"/>
<polygon fill="black" stroke="black" points="179.5,-62.1 176,-52.1 172.5,-62.1 179.5,-62.1"/>
</g>
<!-- nodeid_1052860259 -->
<g id="node5" class="node">
<title>nodeid_1052860259</title>
<path fill="none" stroke="black" d="M180,-340C180,-340 28,-340 28,-340 22,-340 16,-334 16,-328 16,-328 16,-316 16,-316 16,-310 22,-304 28,-304 28,-304 180,-304 180,-304 186,-304 192,-310 192,-316 192,-316 192,-328 192,-328 192,-334 186,-340 180,-340"/>
<text text-anchor="middle" x="104" y="-318.3" font-family="Times,serif" font-size="14.00">hex ⇒ digit digit • digit, 0, 2</text>
</g>
<!-- anond1e9 -->
<g id="node6" class="node">
<title>anond1e9</title>
<ellipse fill="none" stroke="black" cx="104" cy="-250" rx="9" ry="9"/>
</g>
<!-- nodeid_1052860259&#45;&gt;anond1e9 -->
<g id="edge3" class="edge">
<title>nodeid_1052860259&#45;&gt;anond1e9</title>
<path fill="none" stroke="black" d="M104,-303.7C104,-293.23 104,-279.9 104,-269.27"/>
<polygon fill="black" stroke="black" points="107.5,-269.05 104,-259.05 100.5,-269.05 107.5,-269.05"/>
</g>
<!-- nodeid_1594439167 -->
<g id="node8" class="node">
<title>nodeid_1594439167</title>
<ellipse fill="none" stroke="black" cx="261" cy="-250" rx="45.49" ry="18"/>
<text text-anchor="middle" x="261" y="-246.3" font-family="Times,serif" font-size="14.00">digit, 2, 3</text>
</g>
<!-- nodeid_1052860259&#45;&gt;nodeid_1594439167 -->
<!-- anond1e9&#45;&gt;nodeid_1594439322 -->
<g id="edge5" class="edge">
<title>anond1e9&#45;&gt;nodeid_1594439322</title>
<path fill="none" stroke="black" d="M103.89,-240.97C103.77,-232.58 103.57,-218.95 103.39,-206.6"/>
<polygon fill="black" stroke="black" points="106.89,-206.2 103.25,-196.25 99.89,-206.3 106.89,-206.2"/>
</g>
<!-- anond1e9&#45;&gt;nodeid_1594439260 -->
<g id="edge6" class="edge">
<title>anond1e9&#45;&gt;nodeid_1594439260</title>
<path fill="none" stroke="black" d="M111.65,-245.24C124.04,-238.71 148.3,-224.03 160,-204 172.41,-182.76 175.91,-154.7 176.61,-134.22"/>
<polygon fill="black" stroke="black" points="180.11,-134.05 176.75,-124 173.12,-133.95 180.11,-134.05"/>
</g>
<!-- nodeid10253 -->
<g id="node7" class="node">
<title>nodeid10253</title>
<polygon fill="none" stroke="black" points="304.26,-183.56 261,-196 217.74,-183.56 217.78,-163.44 304.22,-163.44 304.26,-183.56"/>
<text text-anchor="middle" x="261" y="-174.3" font-family="Times,serif" font-size="14.00">&#39;f&#39;, 2, 3</text>
</g>
<!-- nodeid_1594439167&#45;&gt;nodeid10253 -->
<g id="edge7" class="edge">
<title>nodeid_1594439167&#45;&gt;nodeid10253</title>
<path fill="none" stroke="black" d="M261,-231.7C261,-223.98 261,-214.71 261,-206.11"/>
<polygon fill="black" stroke="black" points="264.5,-206.1 261,-196.1 257.5,-206.1 264.5,-206.1"/>
</g>
<!-- nodeid_1050692850 -->
<g id="node9" class="node">
<title>nodeid_1050692850</title>
<ellipse fill="none" stroke="black" cx="172" cy="-448" rx="42.49" ry="18"/>
<text text-anchor="middle" x="172" y="-444.3" font-family="Times,serif" font-size="14.00">hex, 0, 3</text>
</g>
<!-- anond1e16 -->
<g id="node10" class="node">
<title>anond1e16</title>
<ellipse fill="none" stroke="black" cx="172" cy="-385" rx="9" ry="9"/>
</g>
<!-- nodeid_1050692850&#45;&gt;anond1e16 -->
<g id="edge8" class="edge">
<title>nodeid_1050692850&#45;&gt;anond1e16</title>
<path fill="none" stroke="black" d="M172,-429.68C172,-421.73 172,-412.31 172,-404.25"/>
<polygon fill="black" stroke="black" points="175.5,-404.06 172,-394.06 168.5,-404.06 175.5,-404.06"/>
</g>
<!-- anond1e16&#45;&gt;nodeid_1052860259 -->
<g id="edge10" class="edge">
<title>anond1e16&#45;&gt;nodeid_1052860259</title>
<path fill="none" stroke="black" d="M165.72,-378.37C157.77,-371.24 143.57,-358.49 130.78,-347.03"/>
<polygon fill="black" stroke="black" points="132.86,-344.19 123.08,-340.11 128.18,-349.4 132.86,-344.19"/>
</g>
<!-- anond1e16&#45;&gt;nodeid_1594439167 -->
<g id="edge11" class="edge">
<title>anond1e16&#45;&gt;nodeid_1594439167</title>
<path fill="none" stroke="black" d="M178.3,-377.69C185.07,-370.75 195.93,-359.09 204,-348 220.76,-324.96 236.93,-296.67 247.74,-276.61"/>
<polygon fill="black" stroke="black" points="250.85,-278.22 252.45,-267.75 244.67,-274.93 250.85,-278.22"/>
</g>
<!-- nodeid12750901 -->
<g id="node11" class="node">
<title>nodeid12750901</title>
<ellipse fill="none" stroke="black" cx="172" cy="-520" rx="36.29" ry="18"/>
<text text-anchor="middle" x="172" y="-516.3" font-family="Times,serif" font-size="14.00">id, 0, 3</text>
</g>
<!-- nodeid12750901&#45;&gt;nodeid_1050692850 -->
<g id="edge12" class="edge">
<title>nodeid12750901&#45;&gt;nodeid_1050692850</title>
<path fill="none" stroke="black" d="M172,-501.7C172,-493.98 172,-484.71 172,-476.11"/>
<polygon fill="black" stroke="black" points="175.5,-476.1 172,-466.1 168.5,-476.1 175.5,-476.1"/>
</g>
</g>
</svg>
