<?xml version="1.0" encoding="UTF-8" standalone="no"?>
<!DOCTYPE svg PUBLIC "-//W3C//DTD SVG 1.1//EN"
 "http://www.w3.org/Graphics/SVG/1.1/DTD/svg11.dtd">
<!-- Generated by graphviz version 2.50.0 (20211204.2007)
 -->
<!-- Title: tree Pages: 1 -->
<svg width="282pt" height="236pt"
 viewBox="0.00 0.00 282.00 236.00" xmlns="http://www.w3.org/2000/svg" xmlns:xlink="http://www.w3.org/1999/xlink">
<g id="graph0" class="graph" transform="scale(1 1) rotate(0) translate(4 232)">
<title>tree</title>
<polygon fill="white" stroke="transparent" points="-4,4 -4,-232 278,-232 278,4 -4,4"/>
<g id="clust1" class="cluster">
<title>cluster_node0006</title>
<polygon fill="white" stroke="white" points="8,-8 8,-220 266,-220 266,-8 8,-8"/>
</g>
<g id="clust2" class="cluster">
<title>cluster_node0007</title>
<polygon fill="white" stroke="white" points="16,-16 16,-148 258,-148 258,-16 16,-16"/>
</g>
<g id="clust3" class="cluster">
<title>cluster_node0009</title>
<polygon fill="white" stroke="white" points="24,-24 24,-76 94,-76 94,-24 24,-24"/>
</g>
<g id="clust4" class="cluster">
<title>cluster_node0010</title>
<polygon fill="white" stroke="white" points="102,-24 102,-76 172,-76 172,-24 102,-24"/>
</g>
<g id="clust5" class="cluster">
<title>cluster_node0011</title>
<polygon fill="white" stroke="white" points="180,-24 180,-76 250,-76 250,-24 180,-24"/>
</g>
<!-- nodenode0006 -->
<g id="node1" class="node">
<title>nodenode0006</title>
<ellipse fill="none" stroke="black" cx="137" cy="-194" rx="27" ry="18"/>
<text text-anchor="middle" x="137" y="-190.3" font-family="Times,serif" font-size="14.00">id</text>
</g>
<!-- nodenode0007 -->
<g id="node2" class="node">
<title>nodenode0007</title>
<ellipse fill="none" stroke="black" cx="137" cy="-122" rx="27" ry="18"/>
<text text-anchor="middle" x="137" y="-118.3" font-family="Times,serif" font-size="14.00">hex</text>
</g>
<!-- nodenode0006&#45;&gt;nodenode0007 -->
<g id="edge1" class="edge">
<title>nodenode0006&#45;&gt;nodenode0007</title>
<path fill="none" stroke="black" d="M137,-175.7C137,-167.98 137,-158.71 137,-150.11"/>
<polygon fill="black" stroke="black" points="140.5,-150.1 137,-140.1 133.5,-150.1 140.5,-150.1"/>
</g>
<!-- nodenode0009 -->
<g id="node3" class="node">
<title>nodenode0009</title>
<polygon fill="none" stroke="black" points="86,-55.56 59,-68 32,-55.56 32.03,-35.44 85.97,-35.44 86,-55.56"/>
<text text-anchor="middle" x="59" y="-46.3" font-family="Times,serif" font-size="14.00">&#39;f&#39;</text>
</g>
<!-- nodenode0007&#45;&gt;nodenode0009 -->
<g id="edge2" class="edge">
<title>nodenode0007&#45;&gt;nodenode0009</title>
<path fill="none" stroke="black" d="M121.59,-107.17C109.53,-96.35 92.65,-81.2 79.46,-69.36"/>
<polygon fill="black" stroke="black" points="81.58,-66.56 71.8,-62.49 76.9,-71.77 81.58,-66.56"/>
</g>
<!-- nodenode0010 -->
<g id="node4" class="node">
<title>nodenode0010</title>
<polygon fill="none" stroke="black" points="164,-55.56 137,-68 110,-55.56 110.03,-35.44 163.97,-35.44 164,-55.56"/>
<text text-anchor="middle" x="137" y="-46.3" font-family="Times,serif" font-size="14.00">&#39;a&#39;</text>
</g>
<!-- nodenode0007&#45;&gt;nodenode0010 -->
<g id="edge3" class="edge">
<title>nodenode0007&#45;&gt;nodenode0010</title>
<path fill="none" stroke="black" d="M137,-103.7C137,-95.98 137,-86.71 137,-78.11"/>
<polygon fill="black" stroke="black" points="140.5,-78.1 137,-68.1 133.5,-78.1 140.5,-78.1"/>
</g>
<!-- nodenode0011 -->
<g id="node5" class="node">
<title>nodenode0011</title>
<polygon fill="none" stroke="black" points="242,-55.56 215,-68 188,-55.56 188.03,-35.44 241.97,-35.44 242,-55.56"/>
<text text-anchor="middle" x="215" y="-46.3" font-family="Times,serif" font-size="14.00">&#39;b&#39;</text>
</g>
<!-- nodenode0007&#45;&gt;nodenode0011 -->
<g id="edge4" class="edge">
<title>nodenode0007&#45;&gt;nodenode0011</title>
<path fill="none" stroke="black" d="M152.41,-107.17C164.47,-96.35 181.35,-81.2 194.54,-69.36"/>
<polygon fill="black" stroke="black" points="197.1,-71.77 202.2,-62.49 192.42,-66.56 197.1,-71.77"/>
</g>
</g>
</svg>
