<?xml version="1.0" encoding="UTF-8" standalone="no"?>
<!DOCTYPE svg PUBLIC "-//W3C//DTD SVG 1.1//EN"
 "http://www.w3.org/Graphics/SVG/1.1/DTD/svg11.dtd">
<!-- Generated by graphviz version 2.50.0 (20211204.2007)
 -->
<!-- Title: SPPF Pages: 1 -->
<svg width="1120pt" height="490pt"
 viewBox="0.00 0.00 1120.00 490.00" xmlns="http://www.w3.org/2000/svg" xmlns:xlink="http://www.w3.org/1999/xlink">
<g id="graph0" class="graph" transform="scale(1 1) rotate(0) translate(4 486)">
<title>SPPF</title>
<polygon fill="white" stroke="transparent" points="-4,4 -4,-486 1116,-486 1116,4 -4,4"/>
<g id="clust1" class="cluster">
<title>cluster_id10098</title>
<polygon fill="white" stroke="white" points="569,-80 569,-132 671,-132 671,-80 569,-80"/>
</g>
<g id="clust2" class="cluster">
<title>cluster_id9634</title>
<polygon fill="white" stroke="white" points="567,-8 567,-60 673,-60 673,-8 567,-8"/>
</g>
<g id="clust3" class="cluster">
<title>cluster_id_168395602</title>
<polygon fill="white" stroke="white" points="678,-161 678,-276 1104,-276 1104,-161 678,-161"/>
</g>
<g id="clust5" class="cluster">
<title>cluster_id_85271278</title>
<polygon fill="white" stroke="white" points="8,-161 8,-276 556,-276 556,-161 8,-161"/>
</g>
<g id="clust7" class="cluster">
<title>cluster_id9826</title>
<polygon fill="white" stroke="white" points="564,-152 564,-204 670,-204 670,-152 564,-152"/>
</g>
<g id="clust8" class="cluster">
<title>cluster_id_91631174</title>
<polygon fill="white" stroke="white" points="673,-296 673,-402 783,-402 783,-296 673,-296"/>
</g>
<g id="clust10" class="cluster">
<title>cluster_id_83103869</title>
<polygon fill="white" stroke="white" points="454,-296 454,-402 554,-402 554,-296 454,-296"/>
</g>
<g id="clust12" class="cluster">
<title>cluster_id435467311</title>
<polygon fill="white" stroke="white" points="684,-422 684,-474 772,-474 772,-422 684,-422"/>
</g>
<g id="clust13" class="cluster">
<title>cluster_id12750901</title>
<polygon fill="white" stroke="white" points="460,-422 460,-474 548,-474 548,-422 460,-422"/>
</g>
<!-- nodeid10098 -->
<g id="node1" class="node">
<title>nodeid10098</title>
<polygon fill="none" stroke="black" points="663.26,-111.56 620,-124 576.74,-111.56 576.78,-91.44 663.22,-91.44 663.26,-111.56"/>
<text text-anchor="middle" x="620" y="-102.3" font-family="Times,serif" font-size="14.00">&#39;f&#39;, 0, 1</text>
</g>
<!-- nodeid9634 -->
<g id="node2" class="node">
<title>nodeid9634</title>
<polygon fill="none" stroke="black" points="664.98,-39.56 620,-52 575.02,-39.56 575.06,-19.44 664.94,-19.44 664.98,-39.56"/>
<text text-anchor="middle" x="620" y="-30.3" font-family="Times,serif" font-size="14.00">&#39;a&#39;, 1, 2</text>
</g>
<!-- nodeid10098&#45;&gt;nodeid9634 -->
<!-- nodeid10098&#45;&gt;nodeid9634 -->
<!-- nodeid_168395602 -->
<g id="node3" class="node">
<title>nodeid_168395602</title>
<path fill="none" stroke="black" d="M1084,-268C1084,-268 698,-268 698,-268 692,-268 686,-262 686,-256 686,-256 686,-244 686,-244 686,-238 692,-232 698,-232 698,-232 1084,-232 1084,-232 1090,-232 1096,-238 1096,-244 1096,-244 1096,-256 1096,-256 1096,-262 1090,-268 1084,-268"/>
<text text-anchor="middle" x="891" y="-246.3" font-family="Times,serif" font-size="14.00">word ⇒ [&quot;a&quot;&#45;&quot;z&quot;;&quot;A&quot;&#45;&quot;Z&quot;] [&quot;a&quot;&#45;&quot;z&quot;;&quot;A&quot;&#45;&quot;Z&quot;] • [&quot;a&quot;&#45;&quot;z&quot;;&quot;A&quot;&#45;&quot;Z&quot;], 0, 2</text>
</g>
<!-- anond1e5 -->
<g id="node4" class="node">
<title>anond1e5</title>
<ellipse fill="none" stroke="black" cx="695" cy="-178" rx="9" ry="9"/>
</g>
<!-- nodeid_168395602&#45;&gt;anond1e5 -->
<g id="edge1" class="edge">
<title>nodeid_168395602&#45;&gt;anond1e5</title>
<path fill="none" stroke="black" d="M843.3,-231.97C801.3,-216.97 742.39,-195.93 713.07,-185.45"/>
<polygon fill="black" stroke="black" points="713.97,-182.06 703.37,-181.99 711.61,-188.65 713.97,-182.06"/>
</g>
<!-- nodeid9826 -->
<g id="node7" class="node">
<title>nodeid9826</title>
<polygon fill="none" stroke="black" points="661.98,-183.56 617,-196 572.02,-183.56 572.06,-163.44 661.94,-163.44 661.98,-183.56"/>
<text text-anchor="middle" x="617" y="-174.3" font-family="Times,serif" font-size="14.00">&#39;b&#39;, 2, 3</text>
</g>
<!-- nodeid_168395602&#45;&gt;nodeid9826 -->
<!-- anond1e5&#45;&gt;nodeid10098 -->
<g id="edge3" class="edge">
<title>anond1e5&#45;&gt;nodeid10098</title>
<path fill="none" stroke="black" d="M689.78,-170.14C685.7,-164.95 679.78,-157.76 674,-152 664.91,-142.94 654.17,-133.73 644.67,-126.02"/>
<polygon fill="black" stroke="black" points="646.72,-123.18 636.72,-119.67 642.35,-128.65 646.72,-123.18"/>
</g>
<!-- anond1e5&#45;&gt;nodeid9634 -->
<g id="edge4" class="edge">
<title>anond1e5&#45;&gt;nodeid9634</title>
<path fill="none" stroke="black" d="M695.1,-168.8C694.95,-151.22 692.63,-109.13 675,-80 668.48,-69.22 658.41,-59.89 648.66,-52.55"/>
<polygon fill="black" stroke="black" points="650.47,-49.54 640.28,-46.64 646.43,-55.26 650.47,-49.54"/>
</g>
<!-- nodeid_85271278 -->
<g id="node5" class="node">
<title>nodeid_85271278</title>
<path fill="none" stroke="black" d="M536,-268C536,-268 28,-268 28,-268 22,-268 16,-262 16,-256 16,-256 16,-244 16,-244 16,-238 22,-232 28,-232 28,-232 536,-232 536,-232 542,-232 548,-238 548,-244 548,-244 548,-256 548,-256 548,-262 542,-268 536,-268"/>
<text text-anchor="middle" x="282" y="-246.3" font-family="Times,serif" font-size="14.00">hex ⇒ [&quot;0&quot;&#45;&quot;9&quot;;&quot;a&quot;&#45;&quot;f&quot;;&quot;A&quot;&#45;&quot;F&quot;] [&quot;0&quot;&#45;&quot;9&quot;;&quot;a&quot;&#45;&quot;f&quot;;&quot;A&quot;&#45;&quot;F&quot;] • [&quot;0&quot;&#45;&quot;9&quot;;&quot;a&quot;&#45;&quot;f&quot;;&quot;A&quot;&#45;&quot;F&quot;], 0, 2</text>
</g>
<!-- anond1e9 -->
<g id="node6" class="node">
<title>anond1e9</title>
<ellipse fill="none" stroke="black" cx="539" cy="-178" rx="9" ry="9"/>
</g>
<!-- nodeid_85271278&#45;&gt;anond1e9 -->
<g id="edge5" class="edge">
<title>nodeid_85271278&#45;&gt;anond1e9</title>
<path fill="none" stroke="black" d="M344.54,-231.97C402.19,-216.26 484.14,-193.94 520.45,-184.05"/>
<polygon fill="black" stroke="black" points="521.82,-187.31 530.55,-181.3 519.98,-180.55 521.82,-187.31"/>
</g>
<!-- nodeid_85271278&#45;&gt;nodeid9826 -->
<!-- anond1e9&#45;&gt;nodeid10098 -->
<g id="edge7" class="edge">
<title>anond1e9&#45;&gt;nodeid10098</title>
<path fill="none" stroke="black" d="M544.14,-170.05C548.17,-164.82 554.07,-157.61 560,-152 570.3,-142.25 582.69,-132.66 593.53,-124.85"/>
<polygon fill="black" stroke="black" points="595.67,-127.62 601.83,-119 591.64,-121.9 595.67,-127.62"/>
</g>
<!-- anond1e9&#45;&gt;nodeid9634 -->
<g id="edge8" class="edge">
<title>anond1e9&#45;&gt;nodeid9634</title>
<path fill="none" stroke="black" d="M539.51,-168.78C540.96,-151.17 546.27,-109 565,-80 571.89,-69.34 582.12,-59.98 591.9,-52.6"/>
<polygon fill="black" stroke="black" points="594.16,-55.29 600.28,-46.64 590.1,-49.58 594.16,-55.29"/>
</g>
<!-- nodeid_91631174 -->
<g id="node8" class="node">
<title>nodeid_91631174</title>
<ellipse fill="none" stroke="black" cx="728" cy="-376" rx="47.39" ry="18"/>
<text text-anchor="middle" x="728" y="-372.3" font-family="Times,serif" font-size="14.00">word, 0, 3</text>
</g>
<!-- anond1e14 -->
<g id="node9" class="node">
<title>anond1e14</title>
<ellipse fill="none" stroke="black" cx="728" cy="-313" rx="9" ry="9"/>
</g>
<!-- nodeid_91631174&#45;&gt;anond1e14 -->
<g id="edge9" class="edge">
<title>nodeid_91631174&#45;&gt;anond1e14</title>
<path fill="none" stroke="black" d="M728,-357.68C728,-349.73 728,-340.31 728,-332.25"/>
<polygon fill="black" stroke="black" points="731.5,-332.06 728,-322.06 724.5,-332.06 731.5,-332.06"/>
</g>
<!-- anond1e14&#45;&gt;nodeid_168395602 -->
<g id="edge11" class="edge">
<title>anond1e14&#45;&gt;nodeid_168395602</title>
<path fill="none" stroke="black" d="M736.31,-308.89C754.47,-302.09 799.03,-285.42 835.68,-271.7"/>
<polygon fill="black" stroke="black" points="837.15,-274.89 845.29,-268.11 834.7,-268.33 837.15,-274.89"/>
</g>
<!-- anond1e14&#45;&gt;nodeid9826 -->
<g id="edge12" class="edge">
<title>anond1e14&#45;&gt;nodeid9826</title>
<path fill="none" stroke="black" d="M720.23,-308.26C708.97,-302.55 687.93,-290.74 674,-276 653.73,-254.55 637.54,-224.64 627.66,-203.72"/>
<polygon fill="black" stroke="black" points="630.8,-202.16 623.46,-194.53 624.44,-205.07 630.8,-202.16"/>
</g>
<!-- nodeid_83103869 -->
<g id="node10" class="node">
<title>nodeid_83103869</title>
<ellipse fill="none" stroke="black" cx="504" cy="-376" rx="42.49" ry="18"/>
<text text-anchor="middle" x="504" y="-372.3" font-family="Times,serif" font-size="14.00">hex, 0, 3</text>
</g>
<!-- anond1e18 -->
<g id="node11" class="node">
<title>anond1e18</title>
<ellipse fill="none" stroke="black" cx="504" cy="-313" rx="9" ry="9"/>
</g>
<!-- nodeid_83103869&#45;&gt;anond1e18 -->
<g id="edge13" class="edge">
<title>nodeid_83103869&#45;&gt;anond1e18</title>
<path fill="none" stroke="black" d="M504,-357.68C504,-349.73 504,-340.31 504,-332.25"/>
<polygon fill="black" stroke="black" points="507.5,-332.06 504,-322.06 500.5,-332.06 507.5,-332.06"/>
</g>
<!-- anond1e18&#45;&gt;nodeid_85271278 -->
<g id="edge15" class="edge">
<title>anond1e18&#45;&gt;nodeid_85271278</title>
<path fill="none" stroke="black" d="M495.57,-309.68C472.45,-303.33 406.3,-285.16 353.69,-270.7"/>
<polygon fill="black" stroke="black" points="354.6,-267.32 344.03,-268.05 352.75,-274.07 354.6,-267.32"/>
</g>
<!-- anond1e18&#45;&gt;nodeid9826 -->
<g id="edge16" class="edge">
<title>anond1e18&#45;&gt;nodeid9826</title>
<path fill="none" stroke="black" d="M512.07,-308.33C523.76,-302.71 545.59,-291 560,-276 580.44,-254.72 596.61,-224.78 606.43,-203.8"/>
<polygon fill="black" stroke="black" points="609.66,-205.14 610.6,-194.58 603.29,-202.25 609.66,-205.14"/>
</g>
<!-- nodeid435467311 -->
<g id="node12" class="node">
<title>nodeid435467311</title>
<ellipse fill="none" stroke="black" cx="728" cy="-448" rx="36.29" ry="18"/>
<text text-anchor="middle" x="728" y="-444.3" font-family="Times,serif" font-size="14.00">id, 0, 3</text>
</g>
<!-- nodeid435467311&#45;&gt;nodeid_91631174 -->
<g id="edge17" class="edge">
<title>nodeid435467311&#45;&gt;nodeid_91631174</title>
<path fill="none" stroke="black" d="M728,-429.7C728,-421.98 728,-412.71 728,-404.11"/>
<polygon fill="black" stroke="black" points="731.5,-404.1 728,-394.1 724.5,-404.1 731.5,-404.1"/>
</g>
<!-- nodeid12750901 -->
<g id="node13" class="node">
<title>nodeid12750901</title>
<ellipse fill="none" stroke="black" cx="504" cy="-448" rx="36.29" ry="18"/>
<text text-anchor="middle" x="504" y="-444.3" font-family="Times,serif" font-size="14.00">id, 0, 3</text>
</g>
<!-- nodeid12750901&#45;&gt;nodeid_83103869 -->
<g id="edge18" class="edge">
<title>nodeid12750901&#45;&gt;nodeid_83103869</title>
<path fill="none" stroke="black" d="M504,-429.7C504,-421.98 504,-412.71 504,-404.11"/>
<polygon fill="black" stroke="black" points="507.5,-404.1 504,-394.1 500.5,-404.1 507.5,-404.1"/>
</g>
</g>
</svg>
